# xmcd
#
# Track frame offsets:
# 150
# 19504
# 36394
# 55640
# 73803
# 93074
# 118266
# 143946
# 163449
# 188898
#
# Disc length: 2819 seconds
#
#
# Revision: 0
# Processed by: cddbd v1.5PL3 Copyright (c) Steve Scherf et al.
# Submitted via: HACP 1.20
#
DISCID=8d0b010a
DTITLE=Joe Markus - Blue Top
DYEAR=1900
DGENRE=
TTITLE0=Other Woman
TTITLE1=Breezin'
TTITLE2=Big Hearted Woman
TTITLE3=Having A Moment
TTITLE4=Love In The Corner
TTITLE5=No Hollywood Style
TTITLE6=Seventh Blues
TTITLE7=For A While
TTITLE8=Full Moon Over Vientiane
TTITLE9=Rollin' Blues
EXTD=
EXTT0=
EXTT1=
EXTT2=
EXTT3=
EXTT4=
EXTT5=
EXTT6=
EXTT7=
EXTT8=
EXTT9=
PLAYORDER=
